<mxfile host="65bd71144e">
    <diagram name="第 1 页" id="Sx-POFTGexlg5zIO2r_u">
        <mxGraphModel dx="1386" dy="779" grid="1" gridSize="10" guides="1" tooltips="1" connect="1" arrows="1" fold="1" page="1" pageScale="1" pageWidth="2336" pageHeight="1654" math="0" shadow="0">
            <root>
                <mxCell id="0"/>
                <mxCell id="1" parent="0"/>
                <mxCell id="13" value="系统" style="swimlane;childLayout=stackLayout;resizeParent=1;resizeParentMax=0;startSize=20;html=1;rounded=0;" vertex="1" parent="1">
                    <mxGeometry x="360" y="30" width="640" height="720" as="geometry"/>
                </mxCell>
                <mxCell id="14" value="履信管理用户" style="swimlane;startSize=20;html=1;rounded=0;" vertex="1" parent="13">
                    <mxGeometry y="20" width="160" height="700" as="geometry"/>
                </mxCell>
                <mxCell id="22" value="" style="edgeStyle=none;html=1;fontFamily=Helvetica;fontSize=12;fontColor=rgb(0, 0, 0);startSize=20;" edge="1" parent="14" source="18" target="21">
                    <mxGeometry relative="1" as="geometry"/>
                </mxCell>
                <mxCell id="18" value="用户登录" style="rounded=1;whiteSpace=wrap;html=1;strokeColor=rgb(0, 0, 0);fontFamily=Helvetica;fontSize=12;fontColor=rgb(0, 0, 0);startSize=20;fillColor=rgb(255, 255, 255);" vertex="1" parent="14">
                    <mxGeometry x="30" y="50" width="100" height="40" as="geometry"/>
                </mxCell>
                <mxCell id="25" value="" style="edgeStyle=none;html=1;fontFamily=Helvetica;fontSize=12;fontColor=rgb(0, 0, 0);startSize=20;" edge="1" parent="14" source="21" target="24">
                    <mxGeometry relative="1" as="geometry"/>
                </mxCell>
                <mxCell id="21" value="创建各个类型用户的菜单" style="rounded=1;whiteSpace=wrap;html=1;strokeColor=rgb(0, 0, 0);fontFamily=Helvetica;fontSize=12;fontColor=rgb(0, 0, 0);startSize=20;fillColor=rgb(255, 255, 255);" vertex="1" parent="14">
                    <mxGeometry x="30" y="120" width="100" height="40" as="geometry"/>
                </mxCell>
                <mxCell id="27" value="" style="edgeStyle=none;html=1;fontFamily=Helvetica;fontSize=12;fontColor=rgb(0, 0, 0);startSize=20;" edge="1" parent="14" source="24" target="26">
                    <mxGeometry relative="1" as="geometry"/>
                </mxCell>
                <mxCell id="24" value="创建协会用户" style="rounded=1;whiteSpace=wrap;html=1;strokeColor=rgb(0, 0, 0);fontFamily=Helvetica;fontSize=12;fontColor=rgb(0, 0, 0);startSize=20;fillColor=rgb(255, 255, 255);" vertex="1" parent="14">
                    <mxGeometry x="30" y="190" width="100" height="40" as="geometry"/>
                </mxCell>
                <mxCell id="26" value="创建协会商标" style="rounded=1;whiteSpace=wrap;html=1;strokeColor=rgb(0, 0, 0);fontFamily=Helvetica;fontSize=12;fontColor=rgb(0, 0, 0);startSize=20;fillColor=rgb(255, 255, 255);" vertex="1" parent="14">
                    <mxGeometry x="30" y="260" width="100" height="40" as="geometry"/>
                </mxCell>
                <mxCell id="15" value="协会用户" style="swimlane;startSize=20;html=1;rounded=0;" vertex="1" parent="13">
                    <mxGeometry x="160" y="20" width="160" height="700" as="geometry"/>
                </mxCell>
                <mxCell id="32" value="" style="edgeStyle=elbowEdgeStyle;html=1;fontFamily=Helvetica;fontSize=12;fontColor=rgb(0, 0, 0);startSize=20;" edge="1" parent="15" source="28" target="31">
                    <mxGeometry relative="1" as="geometry"/>
                </mxCell>
                <mxCell id="28" value="用户登录" style="rounded=1;whiteSpace=wrap;html=1;strokeColor=rgb(0, 0, 0);fontFamily=Helvetica;fontSize=12;fontColor=rgb(0, 0, 0);startSize=20;fillColor=rgb(255, 255, 255);" vertex="1" parent="15">
                    <mxGeometry x="30" y="50" width="100" height="40" as="geometry"/>
                </mxCell>
                <mxCell id="34" value="" style="edgeStyle=elbowEdgeStyle;html=1;fontFamily=Helvetica;fontSize=12;fontColor=rgb(0, 0, 0);startSize=20;" edge="1" parent="15" source="31" target="33">
                    <mxGeometry relative="1" as="geometry"/>
                </mxCell>
                <mxCell id="31" value="配置协会信息" style="rounded=1;whiteSpace=wrap;html=1;strokeColor=rgb(0, 0, 0);fontFamily=Helvetica;fontSize=12;fontColor=rgb(0, 0, 0);startSize=20;fillColor=rgb(255, 255, 255);" vertex="1" parent="15">
                    <mxGeometry x="30" y="120" width="100" height="40" as="geometry"/>
                </mxCell>
                <mxCell id="36" value="" style="edgeStyle=elbowEdgeStyle;html=1;fontFamily=Helvetica;fontSize=12;fontColor=rgb(0, 0, 0);startSize=20;" edge="1" parent="15" source="33" target="35">
                    <mxGeometry relative="1" as="geometry"/>
                </mxCell>
                <mxCell id="33" value="配置溯源码的url" style="rounded=1;whiteSpace=wrap;html=1;strokeColor=rgb(0, 0, 0);fontFamily=Helvetica;fontSize=12;fontColor=rgb(0, 0, 0);startSize=20;fillColor=rgb(255, 255, 255);" vertex="1" parent="15">
                    <mxGeometry x="30" y="190" width="100" height="40" as="geometry"/>
                </mxCell>
                <mxCell id="38" value="" style="edgeStyle=elbowEdgeStyle;html=1;fontFamily=Helvetica;fontSize=12;fontColor=rgb(0, 0, 0);startSize=20;" edge="1" parent="15" source="35" target="37">
                    <mxGeometry relative="1" as="geometry"/>
                </mxCell>
                <mxCell id="35" value="创建厂商" style="rounded=1;whiteSpace=wrap;html=1;strokeColor=rgb(0, 0, 0);fontFamily=Helvetica;fontSize=12;fontColor=rgb(0, 0, 0);startSize=20;fillColor=rgb(255, 255, 255);" vertex="1" parent="15">
                    <mxGeometry x="30" y="260" width="100" height="40" as="geometry"/>
                </mxCell>
                <mxCell id="37" value="生成溯源码&lt;br&gt;(需选择厂商)" style="rounded=1;whiteSpace=wrap;html=1;strokeColor=rgb(0, 0, 0);fontFamily=Helvetica;fontSize=12;fontColor=rgb(0, 0, 0);startSize=20;fillColor=rgb(255, 255, 255);" vertex="1" parent="15">
                    <mxGeometry x="30" y="330" width="100" height="40" as="geometry"/>
                </mxCell>
                <mxCell id="16" value="厂商用户" style="swimlane;startSize=20;html=1;rounded=0;" vertex="1" parent="13">
                    <mxGeometry x="320" y="20" width="160" height="700" as="geometry"/>
                </mxCell>
                <mxCell id="42" value="" style="edgeStyle=elbowEdgeStyle;html=1;fontFamily=Helvetica;fontSize=12;fontColor=rgb(0, 0, 0);startSize=20;" edge="1" parent="16" source="39" target="41">
                    <mxGeometry relative="1" as="geometry"/>
                </mxCell>
                <mxCell id="39" value="用户登录" style="rounded=1;whiteSpace=wrap;html=1;strokeColor=rgb(0, 0, 0);fontFamily=Helvetica;fontSize=12;fontColor=rgb(0, 0, 0);startSize=20;fillColor=rgb(255, 255, 255);" vertex="1" parent="16">
                    <mxGeometry x="20" y="50" width="100" height="40" as="geometry"/>
                </mxCell>
                <mxCell id="46" value="" style="edgeStyle=elbowEdgeStyle;html=1;fontFamily=Helvetica;fontSize=12;fontColor=rgb(0, 0, 0);startSize=20;" edge="1" parent="16" source="41" target="45">
                    <mxGeometry relative="1" as="geometry"/>
                </mxCell>
                <mxCell id="41" value="创建模板" style="rounded=1;whiteSpace=wrap;html=1;strokeColor=rgb(0, 0, 0);fontFamily=Helvetica;fontSize=12;fontColor=rgb(0, 0, 0);startSize=20;fillColor=rgb(255, 255, 255);" vertex="1" parent="16">
                    <mxGeometry x="20" y="120" width="100" height="40" as="geometry"/>
                </mxCell>
                <mxCell id="45" value="溯源码绑定" style="rounded=1;whiteSpace=wrap;html=1;strokeColor=rgb(0, 0, 0);fontFamily=Helvetica;fontSize=12;fontColor=rgb(0, 0, 0);startSize=20;fillColor=rgb(255, 255, 255);" vertex="1" parent="16">
                    <mxGeometry x="20" y="190" width="100" height="40" as="geometry"/>
                </mxCell>
                <mxCell id="77" value="消费者" style="swimlane;startSize=20;html=1;rounded=0;" vertex="1" parent="13">
                    <mxGeometry x="480" y="20" width="160" height="700" as="geometry"/>
                </mxCell>
                <mxCell id="86" value="" style="edgeStyle=elbowEdgeStyle;html=1;fontFamily=Helvetica;fontSize=12;fontColor=rgb(0, 0, 0);startSize=20;" edge="1" parent="77" source="83" target="85">
                    <mxGeometry relative="1" as="geometry"/>
                </mxCell>
                <mxCell id="83" value="扫描溯源码" style="rounded=1;whiteSpace=wrap;html=1;strokeColor=rgb(0, 0, 0);fontFamily=Helvetica;fontSize=12;fontColor=rgb(0, 0, 0);startSize=20;fillColor=rgb(255, 255, 255);" vertex="1" parent="77">
                    <mxGeometry x="40" y="190" width="100" height="40" as="geometry"/>
                </mxCell>
                <mxCell id="88" value="" style="edgeStyle=elbowEdgeStyle;html=1;fontFamily=Helvetica;fontSize=12;fontColor=rgb(0, 0, 0);startSize=20;" edge="1" parent="77" source="85" target="87">
                    <mxGeometry relative="1" as="geometry"/>
                </mxCell>
                <mxCell id="85" value="跳转页面" style="rounded=1;whiteSpace=wrap;html=1;strokeColor=rgb(0, 0, 0);fontFamily=Helvetica;fontSize=12;fontColor=rgb(0, 0, 0);startSize=20;fillColor=rgb(255, 255, 255);" vertex="1" parent="77">
                    <mxGeometry x="40" y="260" width="100" height="40" as="geometry"/>
                </mxCell>
                <mxCell id="90" value="" style="edgeStyle=elbowEdgeStyle;html=1;fontFamily=Helvetica;fontSize=12;fontColor=rgb(0, 0, 0);startSize=20;" edge="1" parent="77" source="87" target="89">
                    <mxGeometry relative="1" as="geometry"/>
                </mxCell>
                <mxCell id="87" value="刮开涂层" style="rounded=1;whiteSpace=wrap;html=1;strokeColor=rgb(0, 0, 0);fontFamily=Helvetica;fontSize=12;fontColor=rgb(0, 0, 0);startSize=20;fillColor=rgb(255, 255, 255);" vertex="1" parent="77">
                    <mxGeometry x="40" y="330" width="100" height="40" as="geometry"/>
                </mxCell>
                <mxCell id="92" value="" style="edgeStyle=elbowEdgeStyle;html=1;fontFamily=Helvetica;fontSize=12;fontColor=rgb(0, 0, 0);startSize=20;" edge="1" parent="77" source="89" target="91">
                    <mxGeometry relative="1" as="geometry"/>
                </mxCell>
                <mxCell id="89" value="输入校验码" style="rounded=1;whiteSpace=wrap;html=1;strokeColor=rgb(0, 0, 0);fontFamily=Helvetica;fontSize=12;fontColor=rgb(0, 0, 0);startSize=20;fillColor=rgb(255, 255, 255);" vertex="1" parent="77">
                    <mxGeometry x="40" y="400" width="100" height="40" as="geometry"/>
                </mxCell>
                <mxCell id="91" value="查验结果" style="rounded=1;whiteSpace=wrap;html=1;strokeColor=rgb(0, 0, 0);fontFamily=Helvetica;fontSize=12;fontColor=rgb(0, 0, 0);startSize=20;fillColor=rgb(255, 255, 255);" vertex="1" parent="77">
                    <mxGeometry x="40" y="470" width="100" height="40" as="geometry"/>
                </mxCell>
                <mxCell id="30" style="edgeStyle=elbowEdgeStyle;html=1;entryX=0;entryY=0.5;entryDx=0;entryDy=0;fontFamily=Helvetica;fontSize=12;fontColor=rgb(0, 0, 0);startSize=20;exitX=1;exitY=0.5;exitDx=0;exitDy=0;dashed=1;" edge="1" parent="13" source="26" target="28">
                    <mxGeometry relative="1" as="geometry">
                        <Array as="points">
                            <mxPoint x="150" y="200"/>
                        </Array>
                    </mxGeometry>
                </mxCell>
                <mxCell id="40" value="" style="edgeStyle=elbowEdgeStyle;html=1;dashed=1;fontFamily=Helvetica;fontSize=12;fontColor=rgb(0, 0, 0);startSize=20;exitX=1;exitY=0.5;exitDx=0;exitDy=0;entryX=0;entryY=0.5;entryDx=0;entryDy=0;" edge="1" parent="13" source="37" target="39">
                    <mxGeometry relative="1" as="geometry">
                        <Array as="points">
                            <mxPoint x="310" y="360"/>
                        </Array>
                    </mxGeometry>
                </mxCell>
                <mxCell id="84" value="" style="edgeStyle=elbowEdgeStyle;html=1;fontFamily=Helvetica;fontSize=12;fontColor=rgb(0, 0, 0);startSize=20;" edge="1" parent="13" source="45" target="83">
                    <mxGeometry relative="1" as="geometry"/>
                </mxCell>
            </root>
        </mxGraphModel>
    </diagram>
</mxfile>